<!-- Modified from https://commons.wikimedia.org/wiki/File:Hexagonal_tiling.svg -->
<svg xmlns="http://www.w3.org/2000/svg" viewBox="900 900 5100 5100">
    <g fill="none" stroke="#000" stroke-width="71">
        <path d="M484 5383h882l441 764-441 764H484L43 6147l441-764Zm2646 0h882l441 764-441 764h-882l-441-764 441-764Zm2646 0h882l441 764-441 764h-882l-441-764 441-764Z"/>
        <path d="M7981 6147h-882l-441-764 441-763h882l440 763-440 764Zm-2646 0h-882l-441-764 441-763h882l441 763-441 764Zm-2646 0h-882l-441-764 441-763h882l441 763-441 764Z"/>
        <path d="M484 3856h882l441 764-441 763H484L43 4620l441-764Zm2646 0h882l441 764-441 763h-882l-441-763 441-764Zm2646 0h882l441 764-441 763h-882l-441-763 441-764Z"/>
        <path d="M7981 4620h-882l-441-764 441-764h882l440 764-440 764Zm-2646 0h-882l-441-764 441-764h882l441 764-441 764Zm-2646 0h-882l-441-764 441-764h882l441 764-441 764Z"/>
        <path d="M484 2328h882l441 764-441 764H484L43 3092l441-764Zm2646 0h882l441 764-441 764h-882l-441-764 441-764Zm2646 0h882l441 764-441 764h-882l-441-764 441-764Z"/>
        <path d="M7981 3092h-882l-441-764 441-763h882l440 763-440 764Zm-2646 0h-882l-441-764 441-763h882l441 763-441 764Zm-2646 0h-882l-441-764 441-763h882l441 763-441 764Z"/>
        <path d="M484 801h882l441 764-441 763H484L43 1565l441-764Zm2646 0h882l441 764-441 763h-882l-441-763 441-764Zm2646 0h882l441 764-441 763h-882l-441-763 441-764Z"/>
        <path d="M7981 1565h-882l-441-764 441-764h882l440 764-440 764Zm-2646 0h-882l-441-764 441-764h882l441 764-441 764Zm-2646 0h-882l-441-764 441-764h882l441 764-441 764Z"/>
    </g>

    <g fill="#70F0B4" stroke="black" stroke-width="71">
        <path d="M1807 3092l-441-764l+441-764h882l441+764h882l441+764l-441+764h-882l-441+764h-882l-441-764l441-764l-441-764"/>
    </g>
</svg>
